<?xml version="1.0" encoding="UTF-8"?>
<svg xmlns="http://www.w3.org/2000/svg" viewBox="0 0 1500 610" width="1500" height="610" role="img"><title>银行适配交付内容与承接关系</title><defs><linearGradient id="panel" x1="0" y1="0" x2="0.85" y2="1"><stop offset="0%" stop-color="#FFFFFF"></stop><stop offset="100%" stop-color="#DDEDFB"></stop></linearGradient><linearGradient id="blue" x1="0" y1="0" x2="0.85" y2="1"><stop offset="0%" stop-color="#519CE0"></stop><stop offset="55%" stop-color="#236BB0"></stop><stop offset="100%" stop-color="#174B78"></stop></linearGradient><linearGradient id="deep" x1="0" y1="0" x2="0.85" y2="1"><stop offset="0%" stop-color="#387CB6"></stop><stop offset="100%" stop-color="#123E69"></stop></linearGradient><linearGradient id="pale" x1="0" y1="0" x2="0.85" y2="1"><stop offset="0%" stop-color="#F6FBFF"></stop><stop offset="100%" stop-color="#AFCFEB"></stop></linearGradient><filter id="shadow" x="-15%" y="-20%" width="140%" height="150%"><feDropShadow dx="0" dy="5" stdDeviation="5" flood-color="#235A87" flood-opacity="0.13"></feDropShadow></filter><marker id="arrow" viewBox="0 0 10 10" refX="9" refY="5" markerWidth="7" markerHeight="7" orient="auto-start-reverse"><path d="M 0 0 L 10 5 L 0 10 z" fill="#236BB0"></path></marker></defs><rect x="0" y="0" width="1500" height="610" fill="#FFFFFF" stroke="none" stroke-width="2" rx="6"></rect><ellipse cx="750" cy="502" rx="454" ry="76" fill="#ECF5FC"></ellipse><path d="M750,500 C720,370 595,388 570,294 M750,445 C790,337 933,355 940,269 M750,418 C710,336 750,277 750,234" fill="none" stroke="#377BB3" stroke-width="19" stroke-linecap="round"></path><rect x="47" y="44" width="440" height="285" fill="#CEDFEF" stroke="none" stroke-width="2" rx="8"></rect><rect x="40" y="35" width="440" height="285" fill="url(#panel)" stroke="#BDD3E6" stroke-width="2" rx="8"></rect><rect x="40" y="35" width="440" height="55" fill="url(#blue)" stroke="none" stroke-width="2" rx="8"></rect><path d="M52,37 H468" stroke="#9DC8EC" stroke-width="2" opacity=".7"></path><text x="260.0" y="73" fill="white" font-family="Microsoft YaHei, SimHei, sans-serif" font-size="31" font-weight="700" text-anchor="middle" data-fit-width="416">业务与任务材料</text><text x="62" y="131" fill="#23465F" font-family="Microsoft YaHei, SimHei, sans-serif" font-size="29" font-weight="400" text-anchor="start" data-fit-width="396">两项任务的口径与候选</text><text x="62" y="174" fill="#23465F" font-family="Microsoft YaHei, SimHei, sans-serif" font-size="29" font-weight="400" text-anchor="start" data-fit-width="396">材料范围与原文要求</text><text x="62" y="217" fill="#23465F" font-family="Microsoft YaHei, SimHei, sans-serif" font-size="29" font-weight="400" text-anchor="start" data-fit-width="396">人员动作与未决事项</text><text x="62" y="260" fill="#23465F" font-family="Microsoft YaHei, SimHei, sans-serif" font-size="29" font-weight="400" text-anchor="start" data-fit-width="396">工小审事项映射说明</text><rect x="537" y="19" width="440" height="230" fill="#CEDFEF" stroke="none" stroke-width="2" rx="8"></rect><rect x="530" y="10" width="440" height="230" fill="url(#panel)" stroke="#BDD3E6" stroke-width="2" rx="8"></rect><rect x="530" y="10" width="440" height="55" fill="url(#deep)" stroke="none" stroke-width="2" rx="8"></rect><path d="M542,12 H958" stroke="#9DC8EC" stroke-width="2" opacity=".7"></path><text x="750.0" y="48" fill="white" font-family="Microsoft YaHei, SimHei, sans-serif" font-size="31" font-weight="700" text-anchor="middle" data-fit-width="416">技术与原型组件</text><text x="552" y="106" fill="#23465F" font-family="Microsoft YaHei, SimHei, sans-serif" font-size="28" font-weight="400" text-anchor="start" data-fit-width="396">可替换判断服务</text><text x="552" y="149" fill="#23465F" font-family="Microsoft YaHei, SimHei, sans-serif" font-size="28" font-weight="400" text-anchor="start" data-fit-width="396">版本化事项包与接口</text><text x="552" y="192" fill="#23465F" font-family="Microsoft YaHei, SimHei, sans-serif" font-size="28" font-weight="400" text-anchor="start" data-fit-width="396">工作台与复核记录</text><text x="552" y="235" fill="#23465F" font-family="Microsoft YaHei, SimHei, sans-serif" font-size="28" font-weight="400" text-anchor="start" data-fit-width="396">异常、审计与恢复设计</text><rect x="1027" y="44" width="440" height="285" fill="#CEDFEF" stroke="none" stroke-width="2" rx="8"></rect><rect x="1020" y="35" width="440" height="285" fill="url(#panel)" stroke="#BDD3E6" stroke-width="2" rx="8"></rect><rect x="1020" y="35" width="440" height="55" fill="url(#blue)" stroke="none" stroke-width="2" rx="8"></rect><path d="M1032,37 H1448" stroke="#9DC8EC" stroke-width="2" opacity=".7"></path><text x="1240.0" y="73" fill="white" font-family="Microsoft YaHei, SimHei, sans-serif" font-size="31" font-weight="700" text-anchor="middle" data-fit-width="416">验证与维护记录</text><text x="1042" y="131" fill="#23465F" font-family="Microsoft YaHei, SimHei, sans-serif" font-size="29" font-weight="400" text-anchor="start" data-fit-width="396">同任务逐例对照结果</text><text x="1042" y="174" fill="#23465F" font-family="Microsoft YaHei, SimHei, sans-serif" font-size="29" font-weight="400" text-anchor="start" data-fit-width="396">模型与配置版本档案</text><text x="1042" y="217" fill="#23465F" font-family="Microsoft YaHei, SimHei, sans-serif" font-size="29" font-weight="400" text-anchor="start" data-fit-width="396">质量、工时及成本评价</text><text x="1042" y="260" fill="#23465F" font-family="Microsoft YaHei, SimHei, sans-serif" font-size="29" font-weight="400" text-anchor="start" data-fit-width="396">使用范围与更新验收</text><path d="M260,330 C260,390 500,338 572,379 M1240,330 C1240,390 1000,338 929,379" fill="none" stroke="#236BB0" stroke-width="4"></path><circle cx="590" cy="441" r="50" fill="url(#pale)" stroke="#A1C4E3" stroke-width="2"></circle><text x="590" y="451" fill="#174B78" font-family="Microsoft YaHei, SimHei, sans-serif" font-size="30" font-weight="700" text-anchor="middle" data-fit-width="90">业务</text><circle cx="750" cy="441" r="50" fill="url(#pale)" stroke="#A1C4E3" stroke-width="2"></circle><text x="750" y="451" fill="#174B78" font-family="Microsoft YaHei, SimHei, sans-serif" font-size="30" font-weight="700" text-anchor="middle" data-fit-width="90">数据</text><circle cx="910" cy="441" r="50" fill="url(#pale)" stroke="#A1C4E3" stroke-width="2"></circle><text x="910" y="451" fill="#174B78" font-family="Microsoft YaHei, SimHei, sans-serif" font-size="30" font-weight="700" text-anchor="middle" data-fit-width="90">技术</text><ellipse cx="750.0" cy="567" rx="302.0" ry="23" fill="#D5E4F0" opacity=".5"></ellipse><rect x="460" y="510" width="580" height="52" fill="url(#deep)" stroke="none" stroke-width="2" rx="4"></rect><ellipse cx="750.0" cy="510" rx="290.0" ry="17" fill="url(#pale)" stroke="#BDD3E6" stroke-width="2"></ellipse><path d="M465,526 Q750.0,556 1035,526" fill="none" stroke="#7EABD2" stroke-width="2"></path><text x="750.0" y="555" fill="white" font-family="Microsoft YaHei, SimHei, sans-serif" font-size="29" font-weight="700" text-anchor="middle" data-fit-width="556">银行适配交付与共同验收</text><text x="750" y="603" fill="#59758A" font-family="Microsoft YaHei, SimHei, sans-serif" font-size="27" font-weight="400" text-anchor="middle" data-fit-width="1430">以获准任务为交付单位，任务口径、环境权限与核验质量共同确认。</text></svg>