<?xml version="1.0" encoding="UTF-8"?>
<svg xmlns="http://www.w3.org/2000/svg" viewBox="0 0 1500 540" width="1500" height="540" role="img"><title>政策脉络与贷前核验设计响应</title><defs><linearGradient id="panel" x1="0" y1="0" x2="0.85" y2="1"><stop offset="0%" stop-color="#FFFFFF"></stop><stop offset="100%" stop-color="#DDEDFB"></stop></linearGradient><linearGradient id="blue" x1="0" y1="0" x2="0.85" y2="1"><stop offset="0%" stop-color="#519CE0"></stop><stop offset="55%" stop-color="#236BB0"></stop><stop offset="100%" stop-color="#174B78"></stop></linearGradient><linearGradient id="deep" x1="0" y1="0" x2="0.85" y2="1"><stop offset="0%" stop-color="#387CB6"></stop><stop offset="100%" stop-color="#123E69"></stop></linearGradient><linearGradient id="pale" x1="0" y1="0" x2="0.85" y2="1"><stop offset="0%" stop-color="#F6FBFF"></stop><stop offset="100%" stop-color="#AFCFEB"></stop></linearGradient><filter id="shadow" x="-15%" y="-20%" width="140%" height="150%"><feDropShadow dx="0" dy="5" stdDeviation="5" flood-color="#235A87" flood-opacity="0.13"></feDropShadow></filter><marker id="arrow" viewBox="0 0 10 10" refX="9" refY="5" markerWidth="7" markerHeight="7" orient="auto-start-reverse"><path d="M 0 0 L 10 5 L 0 10 z" fill="#236BB0"></path></marker></defs><rect x="0" y="0" width="1500" height="540" fill="#FFFFFF" stroke="none" stroke-width="2" rx="6"></rect><path d="M100,83 H1400" stroke="#A8C9E6" stroke-width="14" stroke-linecap="round"></path><circle cx="260" cy="83" r="19" fill="url(#blue)" stroke="white" stroke-width="5"></circle><text x="260" y="43" fill="#174B78" font-family="Microsoft YaHei, SimHei, sans-serif" font-size="31" font-weight="700" text-anchor="middle" data-fit-width="400">2023年10月</text><line x1="260" y1="106" x2="260" y2="132" stroke="#236BB0" stroke-width="3"></line><circle cx="750" cy="83" r="19" fill="url(#blue)" stroke="white" stroke-width="5"></circle><text x="750" y="43" fill="#174B78" font-family="Microsoft YaHei, SimHei, sans-serif" font-size="31" font-weight="700" text-anchor="middle" data-fit-width="400">2024年12月</text><line x1="750" y1="106" x2="750" y2="132" stroke="#236BB0" stroke-width="3"></line><circle cx="1240" cy="83" r="19" fill="url(#blue)" stroke="white" stroke-width="5"></circle><text x="1240" y="43" fill="#174B78" font-family="Microsoft YaHei, SimHei, sans-serif" font-size="31" font-weight="700" text-anchor="middle" data-fit-width="400">2026年9月</text><line x1="1240" y1="106" x2="1240" y2="132" stroke="#236BB0" stroke-width="3"></line><rect x="47" y="141" width="440" height="200" fill="#CEDFEF" stroke="none" stroke-width="2" rx="8"></rect><rect x="40" y="132" width="440" height="200" fill="url(#panel)" stroke="#BDD3E6" stroke-width="2" rx="8"></rect><rect x="40" y="132" width="440" height="55" fill="url(#blue)" stroke="none" stroke-width="2" rx="8"></rect><path d="M52,134 H468" stroke="#9DC8EC" stroke-width="2" opacity=".7"></path><text x="260.0" y="170" fill="white" font-family="Microsoft YaHei, SimHei, sans-serif" font-size="31" font-weight="700" text-anchor="middle" data-fit-width="416">普惠金融提质增效</text><text x="62" y="228" fill="#23465F" font-family="Microsoft YaHei, SimHei, sans-serif" font-size="29" font-weight="400" text-anchor="start" data-fit-width="396">国发〔2023〕15号</text><text x="62" y="271" fill="#23465F" font-family="Microsoft YaHei, SimHei, sans-serif" font-size="29" font-weight="400" text-anchor="start" data-fit-width="396">推进数字普惠金融</text><text x="62" y="314" fill="#23465F" font-family="Microsoft YaHei, SimHei, sans-serif" font-size="29" font-weight="400" text-anchor="start" data-fit-width="396">服务实体与风险管理并重</text><rect x="537" y="141" width="440" height="200" fill="#CEDFEF" stroke="none" stroke-width="2" rx="8"></rect><rect x="530" y="132" width="440" height="200" fill="url(#panel)" stroke="#BDD3E6" stroke-width="2" rx="8"></rect><rect x="530" y="132" width="440" height="55" fill="url(#deep)" stroke="none" stroke-width="2" rx="8"></rect><path d="M542,134 H958" stroke="#9DC8EC" stroke-width="2" opacity=".7"></path><text x="750.0" y="170" fill="white" font-family="Microsoft YaHei, SimHei, sans-serif" font-size="31" font-weight="700" text-anchor="middle" data-fit-width="416">数据安全全过程管理</text><text x="552" y="228" fill="#23465F" font-family="Microsoft YaHei, SimHei, sans-serif" font-size="29" font-weight="400" text-anchor="start" data-fit-width="396">金规〔2024〕24号</text><text x="552" y="271" fill="#23465F" font-family="Microsoft YaHei, SimHei, sans-serif" font-size="29" font-weight="400" text-anchor="start" data-fit-width="396">分类分级与授权访问</text><text x="552" y="314" fill="#23465F" font-family="Microsoft YaHei, SimHei, sans-serif" font-size="29" font-weight="400" text-anchor="start" data-fit-width="396">委托处理与风险处置</text><rect x="1027" y="141" width="440" height="200" fill="#CEDFEF" stroke="none" stroke-width="2" rx="8"></rect><rect x="1020" y="132" width="440" height="200" fill="url(#panel)" stroke="#BDD3E6" stroke-width="2" rx="8"></rect><rect x="1020" y="132" width="440" height="55" fill="url(#blue)" stroke="none" stroke-width="2" rx="8"></rect><path d="M1032,134 H1448" stroke="#9DC8EC" stroke-width="2" opacity=".7"></path><text x="1240.0" y="170" fill="white" font-family="Microsoft YaHei, SimHei, sans-serif" font-size="31" font-weight="700" text-anchor="middle" data-fit-width="416">智能应用价值评价</text><text x="1042" y="228" fill="#23465F" font-family="Microsoft YaHei, SimHei, sans-serif" font-size="29" font-weight="400" text-anchor="start" data-fit-width="396">金融时报行业报道</text><text x="1042" y="271" fill="#23465F" font-family="Microsoft YaHei, SimHei, sans-serif" font-size="29" font-weight="400" text-anchor="start" data-fit-width="396">平衡算力投入与产出</text><text x="1042" y="314" fill="#23465F" font-family="Microsoft YaHei, SimHei, sans-serif" font-size="29" font-weight="400" text-anchor="start" data-fit-width="396">关注实际工作效能</text><path d="M260,346 L260,373" fill="none" stroke="#236BB0" stroke-width="3" marker-end="url(#arrow)"></path><path d="M750,346 L750,373" fill="none" stroke="#236BB0" stroke-width="3" marker-end="url(#arrow)"></path><path d="M1240,346 L1240,373" fill="none" stroke="#236BB0" stroke-width="3" marker-end="url(#arrow)"></path><polygon points="40,389 62,375 482,375 460,389" fill="#9CC2E5"></polygon><polygon points="460,389 482,375 482,465 460,479" fill="#ADC9E1"></polygon><rect x="40" y="389" width="420" height="90" fill="url(#panel)" stroke="#BDD3E6" stroke-width="2" rx="5"></rect><text x="250" y="425" fill="#174B78" font-family="Microsoft YaHei, SimHei, sans-serif" font-size="31" font-weight="700" text-anchor="middle" data-fit-width="385">效率响应</text><text x="250" y="466" fill="#23465F" font-family="Microsoft YaHei, SimHei, sans-serif" font-size="28" font-weight="400" text-anchor="middle" data-fit-width="385">限定任务，减少重复判读</text><polygon points="530,389 552,375 972,375 950,389" fill="#9CC2E5"></polygon><polygon points="950,389 972,375 972,465 950,479" fill="#ADC9E1"></polygon><rect x="530" y="389" width="420" height="90" fill="url(#panel)" stroke="#BDD3E6" stroke-width="2" rx="5"></rect><text x="740" y="425" fill="#174B78" font-family="Microsoft YaHei, SimHei, sans-serif" font-size="31" font-weight="700" text-anchor="middle" data-fit-width="385">治理响应</text><text x="740" y="466" fill="#23465F" font-family="Microsoft YaHei, SimHei, sans-serif" font-size="28" font-weight="400" text-anchor="middle" data-fit-width="385">原文、权限与版本关联</text><polygon points="1020,389 1042,375 1462,375 1440,389" fill="#9CC2E5"></polygon><polygon points="1440,389 1462,375 1462,465 1440,479" fill="#ADC9E1"></polygon><rect x="1020" y="389" width="420" height="90" fill="url(#panel)" stroke="#BDD3E6" stroke-width="2" rx="5"></rect><text x="1230" y="425" fill="#174B78" font-family="Microsoft YaHei, SimHei, sans-serif" font-size="31" font-weight="700" text-anchor="middle" data-fit-width="385">评价响应</text><text x="1230" y="466" fill="#23465F" font-family="Microsoft YaHei, SimHei, sans-serif" font-size="28" font-weight="400" text-anchor="middle" data-fit-width="385">核验质量、工时与成本</text><text x="750" y="527" fill="#59758A" font-family="Microsoft YaHei, SimHei, sans-serif" font-size="27" font-weight="400" text-anchor="middle" data-fit-width="1430">时间轴涵盖公开政策与行业报道；下层对应本项目的设计响应。</text></svg>